<svg xmlns="http://www.w3.org/2000/svg" viewBox="0 0 1920 1080"><defs><style>.cls-1{fill:#00001d;}.cls-2{fill:#007200;}.cls-3{fill:#fff;}.cls-4{fill:#ff0606;}.cls-5,.cls-6,.cls-7,.cls-9{fill:none;stroke-miterlimit:10;}.cls-5{stroke:#007a00;}.cls-5,.cls-6,.cls-7{stroke-width:60px;}.cls-6,.cls-9{stroke:#fff;}.cls-7{stroke:red;}.cls-8{fill:#f9f9f9;}.cls-9{stroke-width:8px;}</style></defs><g id="Backgeround"><rect class="cls-1" width="1920" height="1080"/></g><g id="italian"><path class="cls-2" d="M109.24,164.72V507.35H35.15V164.72Z"/><path class="cls-2" d="M264.11,225.44H160V164.72H442v60.72H338.25V507.35H264.11Z"/><path class="cls-2" d="M514.83,428.21,488.1,507.35H415.27L531.62,164.72h93L746.05,507.35H668.17L640,428.21Zm109.23-60.72C599.73,295.18,584.23,249,576,218.18h-.5C567,252,549.9,305.71,530.4,367.49Z"/><path class="cls-3" d="M790,164.72h74.09V446.63h170.68l-8.47,60.72H790Z"/><path class="cls-4" d="M1152.88,164.72V507.35h-74.09V164.72Z"/><path class="cls-4" d="M1298.56,428.21l-26.73,79.14H1199l116.35-342.63h93.06l121.38,342.63h-77.89l-28.16-79.14Zm109.22-60.72c-24.32-72.31-39.83-118.51-48.1-149.31h-.49c-8.45,33.78-25.57,87.53-45.06,149.31Z"/><path class="cls-4" d="M1573.77,507.35V164.72h91.82c42.8,76.93,121.9,215.69,137.64,253h.94c-3.86-35.76-3.8-95.26-3.8-151.48V164.72h67.14V507.35h-87.09C1743.61,440.41,1656,281,1639,241.43h-.94c2.49,30,3.3,100.35,3.3,161.72v104.2Z"/></g><g id="B"><line class="cls-5" x1="35.15" y1="634.9" x2="955.3" y2="634.9"/></g><g id="G"><line class="cls-6" x1="35.15" y1="759.6" x2="955.3" y2="759.6"/></g><g id="R"><line class="cls-7" x1="35.15" y1="884.3" x2="955.3" y2="884.3"/></g><g id="Birds"><path class="cls-2" d="M1193.56,592.09c9.94,0,43.24,12.92,43.24,20.38a3.83,3.83,0,0,1-1,2.48c-2.49,3-4.48,5-6,8.45-18.88,33.3-41.25,117.78-55.16,188.35,13.91-44.72,30.31-90.45,46.71-128.22,12.93-30.31,29.33-57.15,44.73-74.54,11.43-12.43,25.85-18.89,39.76-18.89,74,0,45.72,135.18-20.87,178.42,10.93,8,20.37,19.38,24.35,31.8C1326.26,852.51,1290,941,1213.94,941c-14.41,0-28.83-5-38.27-16.4-7.45-8.45-3.48-25.35,3-17.4,6.46,8.45,15.41,10.94,23.36,10.94,56.16,0,91.94-136.17,52.19-136.17-8.45,2-19.88,1.49-26.84-1.5-5.47-3-10.44-12.42-8.95-15.9,2-5,14.42-8.45,22.86-8.45,51.69-28.82,89.46-139.65,49.2-139.65-14.91,0-35.28,27.34-55.16,73.06-27.83,64.6-56.16,153.07-70.57,216.68-1,4.47-4,6.46-9.44,6.46-11.93,0-32.8-10.93-32.8-21.87C1122.5,806.78,1172.69,592.09,1193.56,592.09Z"/><path class="cls-2" d="M1333.21,860c7.46-46.71,21.37-99.89,38.27-139.15,2-4,4.47-6.46,7.45-6.46,9.45,0,25.85,8.94,31.81,14.41,5.47,4-.5,10.44-2,15.4-16.89,43.74-31.31,101.39-37.77,137.67-1.49,7.45,3,7.45,7,3.48,30.32-30.32,53.18-88.46,66.1-122.26,3.48-8.45,15.9-3.48,12.92,5-12.92,33.3-56.16,144.62-98.9,144.62-17.39,0-28.82-17.89-27.33-33.79C1331.72,872.39,1332.22,866.42,1333.21,860Zm89.46-249c5.46.49,19.88,6.95,29.32,13.41,7.45,5,7.45,11.43,2,20.38-9,14.91-35.78,55.16-47.71,55.66-28.33,1-2-63.61,4.47-75.54C1415.21,616,1419.19,611,1422.67,611Z"/><path class="cls-8" d="M1455,720.81c1.49-4,4.47-6.46,7-6.46,9.94,0,26.34,8.94,32.31,14.41,5,4-.5,10.44-2.49,15.4a702.29,702.29,0,0,0-24.35,79c17.89-38.27,44.23-85.48,68.09-105.36a13.08,13.08,0,0,1,9.44-3.48c5.47,0,23.36,5.46,30.81,12.92,6.46,6.46,2.49,11.43-3,15.4-16.9,14.42-25.34,39.27-26.34,56.66-.5,12.42,4,17.89,9.44,17.89,20.88,0,40.76-39.76,50.2-55.66,5-7.46,16.4-.5,11.93,7.46-10.94,17.89-31.81,56.65-55.67,65.1-16.89,6.46-48.2-9-50.69-30.81-1.49-14.91,6-38.27,13.42-53.18,2-4.47.5-3.48-1.49-1-32.3,38.77-70.57,125.74-73.06,158,0,5-3,5.47-6,5.47-11.93,0-31.31-13.42-31.31-23.85C1417.69,836.6,1434.09,768.52,1455,720.81Z"/><path class="cls-4" d="M1664.19,856c-13.91,29.81-33.29,56.65-57.64,56.65-24.85,0-35.29-18.88-36.28-40.25-2.49-53.68,21.37-132.2,67.59-157,15.9-8.94,34.78,3.48,48.7,10.44,15.41-71.07,35.28-133.69,46.72-133.69,9.93,0,43.73,12.92,43.73,20.38a2.74,2.74,0,0,1-1.49,2.48c-2,3-4.48,5-6,8.45-24.85,44.73-57.15,183.88-66.09,254-1.49,10.93,1,12.92,8,5.46,28.82-30.81,51.19-87,63.61-119.77,3.48-8.45,15.9-3.48,12.92,5-12.92,33.3-56.16,144.62-98.9,144.62-27.83,0-26.83-29.32-25.34-48.7C1663.7,861.45,1664.19,859,1664.19,856Zm-51.68,2c-1.49,16.9,2.48,27.34,9.94,27.34,5,0,11.43-5,18.39-15.91,11.43-16.89,22.36-43.23,30.81-67.58,3-18.89,7-38.77,10.93-58.65-2-4.47-6-7.95-10.93-7.95C1638.85,735.22,1617,814.24,1612.51,858Z"/><path class="cls-4" d="M1739.23,869.4c7.46-12.42,20.38-16.89,34.29-18.38,10.94-1.5,22.37-1.5,31.81-3.48-4.47-29.82-38.76-48.21-38.76-86.48,0-31.8,27.33-50.69,54.66-50.69,17.89,0,40.76,25.35,40.76,43.24,0,10.44-10.94,28.82-17.9,28.82-10.93,0-26.33-7.45-26.33-12.42a2.59,2.59,0,0,1,1-2c8.45,0,15.41-13.42,15.41-22.86,0-6-2.49-10.93-8-10.93-12.42,0-17.89,21.37-17.89,30.31,0,26.34,26.84,45.23,37.28,67.59,27.33-15.41,43.23-39.26,53.17-69.08,2.49-8.45,15.41-4,12.92,4.47-12.42,37.77-32.3,62.13-61.62,78,6,43.73-41.25,70.07-79.52,70.07C1738.74,915.62,1726.31,889.28,1739.23,869.4Zm26.84-3.47c-21.87,5.46-14.91,36.27,8.45,28.32,13.91-5,26.34-18.88,30.31-32.3C1794.4,864.44,1777.5,862.94,1766.07,865.93Z"/></g><g id="Line"><line class="cls-9" x1="35.15" y1="539.98" x2="1867.51" y2="539.98"/></g></svg>